<svg xmlns="http://www.w3.org/2000/svg" viewBox="0 0 79.64 62.12"><defs><style>.cls-1{fill:#fff;fill-rule:evenodd;}</style></defs><title>cam-nhan2</title><g id="Layer_2" data-name="Layer 2"><g id="Layer_1-2" data-name="Layer 1"><path class="cls-1" d="M4.53,0H70.18a4.45,4.45,0,0,1,4.31,3.38H9.3a6.76,6.76,0,0,0-6.61,6.84V43A4.57,4.57,0,0,1,0,38.9V4.46A4.52,4.52,0,0,1,4.53,0ZM9.3,5.77h66a4.43,4.43,0,0,1,4.31,4.45V44.66a4.43,4.43,0,0,1-4.31,4.46H71.57L70,62.12l-17.91-13H9.3A4.38,4.38,0,0,1,5,44.66V10.22A4.39,4.39,0,0,1,9.3,5.77Zm4.15,9.91h21V19.3h-21Zm0,8h59v3.61h-59Zm0,6.22h59v3.7h-59Zm0,6.31h59V39.9h-59Z"/></g></g></svg>