<svg xmlns="http://www.w3.org/2000/svg" viewBox="0 0 76.56 59.31"><defs><style>.cls-1{fill-rule:evenodd;}</style></defs><path class="cls-1" d="M63.3,33.43a2.7,2.7,0,0,1-2.71-2.74,2.77,2.77,0,0,1,2.71-3,3,3,0,0,1,3,3,3,3,0,0,1-3,2.74Zm0,8.4a3,3,0,0,1,0-6,3.23,3.23,0,0,1,3,3,3.22,3.22,0,0,1-3,3Zm0,8.17a2.81,2.81,0,0,1-2.71-3,2.7,2.7,0,0,1,2.71-2.74,3,3,0,0,1,3,2.74,3.05,3.05,0,0,1-3,3ZM55.46,33.43a3,3,0,0,1-3-2.74,3,3,0,0,1,6,0,3,3,0,0,1-3,2.74Zm0,8.4a3.22,3.22,0,0,1-3-3,3,3,0,1,1,6,0,3.22,3.22,0,0,1-3,3Zm0,8.17a3,3,0,0,1-3-3,3,3,0,0,1,6,0,3.05,3.05,0,0,1-3,3ZM47.62,33.43a3,3,0,0,1-2.7-3,2.69,2.69,0,0,1,2.7-2.69,3,3,0,0,1,3,2.69,3.26,3.26,0,0,1-3,3Zm0,8.11a2.69,2.69,0,0,1-2.7-2.69,2.78,2.78,0,0,1,2.7-3,3,3,0,0,1,3,3,3,3,0,0,1-3,2.69Zm0,8.46a3,3,0,0,1-2.7-3,3,3,0,0,1,2.7-3,3.21,3.21,0,0,1,3,3,3.26,3.26,0,0,1-3,3ZM70.53,17.48a5.27,5.27,0,0,1-5.12,5.09H45.82a5.27,5.27,0,0,1-5.13-5.09V14.74a5,5,0,0,1,5.13-4.8H65.41a5,5,0,0,1,5.12,4.8ZM11.15,0h20.5V59.31H11.15ZM.9,4.8H6.64a.82.82,0,0,1,.9.91V53.6a.81.81,0,0,1-.9.91H.9A1,1,0,0,1,0,53.6V5.71A1,1,0,0,1,.9,4.8ZM35.26,3.31h41.3V56H35.26Z"/></svg>
