<svg xmlns="http://www.w3.org/2000/svg" viewBox="0 0 584.1 83.15"><defs><style>.cls-1{fill:#fff;}</style></defs><title>logo</title><g id="Layer_2" data-name="Layer 2"><g id="Layer_1-2" data-name="Layer 1"><path class="cls-1" d="M34.61,39.74V83H26L8.65,55.87V83H0V39.74H8.65l17.3,27v-27Z"/><path class="cls-1" d="M63,39.55,78.79,82.81H69.58l-3.15-8.65h-16l-3.16,8.65h-9.2L53.82,39.55Zm.25,26L58.46,52.22,53.58,65.51Z"/><path class="cls-1" d="M116.49,39.74V83h-8.66L90.53,55.87V83H81.88V39.74h8.65l17.3,27v-27Z"/><path class="cls-1" d="M155.85,73.36q0,1.17,0,2.25a9.61,9.61,0,0,1-.15,2,6.26,6.26,0,0,1-.71,1.88,7,7,0,0,1-1.64,1.86,7.41,7.41,0,0,1-2.2,1.23,8.81,8.81,0,0,1-2.16.47,16,16,0,0,1-2.19,0c-.74,0-1.49-.06-2.23-.06-1.52,0-3,0-4.51,0s-3,0-4.51,0-2.87,0-4.29,0a24.08,24.08,0,0,1-4.36-.34,7.55,7.55,0,0,1-2.23-.71,6.29,6.29,0,0,1-1.82-1.36,6.14,6.14,0,0,1-1.2-1.89,5.9,5.9,0,0,1-.44-2.28V47.34a8.26,8.26,0,0,1,.25-2,6,6,0,0,1,.84-1.85A8.49,8.49,0,0,1,124,41.65a8.88,8.88,0,0,1,2.14-1.26,8.08,8.08,0,0,1,2-.53,14.51,14.51,0,0,1,2.1-.09q1.08,0,2.19,0h13.32a27.36,27.36,0,0,1,4.42.37,7.12,7.12,0,0,1,2.19.71,6.58,6.58,0,0,1,1.79,1.33,5.78,5.78,0,0,1,1.21,1.88,6.05,6.05,0,0,1,.43,2.26v27Zm-8.65,1v-26H129.9v26Z"/><path class="cls-1" d="M212.39,39.61a6,6,0,0,1,4,1.49,7.09,7.09,0,0,1,1.82,3.21,15.41,15.41,0,0,1,.53,4.08v4H210V48.08h-17.3V74H210V69.71h8.66c0,1.23,0,2.62,0,4.14a15.26,15.26,0,0,1-.65,4.26,7.93,7.93,0,0,1-2,3.34,5.74,5.74,0,0,1-4.17,1.36H195.09q-1.11,0-3-.09a12.67,12.67,0,0,1-3.71-.74,8.13,8.13,0,0,1-3.12-2.07,5.89,5.89,0,0,1-1.33-4.15V53c0-1.31,0-2.5.13-3.55s.2-2.23.37-3.55a6.93,6.93,0,0,1,1.7-4.11A7.11,7.11,0,0,1,189.25,40a13.26,13.26,0,0,1,3.89-.49l3.93,0c1.27,0,2.36,0,3.24,0s1.83,0,2.84,0l3.62,0C208.17,39.6,210,39.61,212.39,39.61Z"/><path class="cls-1" d="M257.26,73.36q0,1.17,0,2.25a9,9,0,0,1-.16,2,6,6,0,0,1-.71,1.88,7,7,0,0,1-1.63,1.86,7.53,7.53,0,0,1-2.2,1.23,8.81,8.81,0,0,1-2.16.47,16.09,16.09,0,0,1-2.2,0q-1.11-.06-2.22-.06c-1.52,0-3,0-4.51,0s-3,0-4.51,0-2.88,0-4.3,0a24,24,0,0,1-4.35-.34,7.45,7.45,0,0,1-2.23-.71,6.31,6.31,0,0,1-3-3.25,5.9,5.9,0,0,1-.43-2.28V47.34a7.8,7.8,0,0,1,.25-2,6,6,0,0,1,.83-1.85,8.56,8.56,0,0,1,1.7-1.83,8.65,8.65,0,0,1,2.13-1.26,8.08,8.08,0,0,1,2-.53,14.51,14.51,0,0,1,2.1-.09c.72,0,1.46,0,2.2,0h13.32a27.15,27.15,0,0,1,4.41.37,7.1,7.1,0,0,1,2.2.71,6.73,6.73,0,0,1,1.79,1.33,5.76,5.76,0,0,1,1.2,1.88,6.06,6.06,0,0,1,.44,2.26v27Zm-8.65,1v-26H231.3v26Z"/><path class="cls-1" d="M290.38,74.22v8.65H262.2V39.61h8.65V74.22Z"/><path class="cls-1" d="M323.81,74.22v8.65H295.63V39.61h8.65V74.22Z"/><path class="cls-1" d="M352.24,39.55,368,82.81h-9.2l-3.15-8.65h-16l-3.15,8.65h-9.21L343,39.55Zm.24,26-4.82-13.29-4.88,13.29Z"/><path class="cls-1" d="M399.33,40.05a6.86,6.86,0,0,1,4.1,1.7,7.11,7.11,0,0,1,1.86,3.15,13.26,13.26,0,0,1,.49,3.89c0,1.38,0,2.69,0,3.92H397.1V48.39H379.8v26h17.3V65.63H386.29V57h19.46V70q0,1.86.06,4a14,14,0,0,1-.46,4.09,7,7,0,0,1-1.85,3.22,6.08,6.08,0,0,1-4.11,1.43q-4.2.18-7.73.12t-7.54-.06l-4.08,0a17.89,17.89,0,0,1-4.17-.53,7,7,0,0,1-3.24-1.76,5,5,0,0,1-1.3-3.74q0-7.73-.06-15.17t.12-15.17a6.07,6.07,0,0,1,1.39-4.17,7.16,7.16,0,0,1,3.25-2,14.52,14.52,0,0,1,4.08-.55h10.53q2.5,0,4.11,0c1.07,0,1.94,0,2.6.09S398.67,40,399.33,40.05Z"/><path class="cls-1" d="M443.45,74.28v8.65H411V39.68h32.45v8.65H419.66V57h19.46v8.65H419.66v8.65Z"/><path class="cls-1" d="M482.63,39.74V83H474l-17.3-27.13V83H448V39.74h8.65l17.3,27v-27Z"/><rect class="cls-1" x="501.5" y="18.77" width="7.51" height="7.51"/><rect class="cls-1" x="520.27" y="18.77" width="7.51" height="7.51"/><rect class="cls-1" x="539.04" y="18.77" width="7.51" height="7.51"/><rect class="cls-1" x="567.2" y="18.77" width="7.51" height="7.51"/><rect class="cls-1" x="548.43" width="7.51" height="7.51"/><rect class="cls-1" x="501.5" y="28.16" width="7.51" height="7.51"/><rect class="cls-1" x="501.5" y="37.55" width="7.51" height="7.51"/><rect class="cls-1" x="501.5" y="46.93" width="7.51" height="7.51"/><rect class="cls-1" x="501.5" y="56.32" width="7.51" height="7.51"/><rect class="cls-1" x="510.88" y="28.16" width="7.51" height="7.51"/><rect class="cls-1" x="510.88" y="46.93" width="7.51" height="7.51"/><rect class="cls-1" x="529.66" y="46.93" width="7.51" height="7.51"/><rect class="cls-1" x="510.88" y="56.32" width="7.51" height="7.51"/><rect class="cls-1" x="510.88" y="65.7" width="7.51" height="7.51"/><rect class="cls-1" x="510.88" y="75.09" width="7.51" height="7.51"/><rect class="cls-1" x="520.27" y="37.55" width="7.51" height="7.51"/><rect class="cls-1" x="520.27" y="56.32" width="7.51" height="7.51"/><rect class="cls-1" x="520.27" y="65.7" width="7.51" height="7.51"/><rect class="cls-1" x="520.27" y="9.39" width="7.51" height="7.51"/><rect class="cls-1" x="520.27" y="75.09" width="7.51" height="7.51"/><rect class="cls-1" x="529.66" y="65.7" width="7.51" height="7.51"/><rect class="cls-1" x="548.43" y="65.7" width="7.51" height="7.51"/><rect class="cls-1" x="529.66" y="75.09" width="7.51" height="7.51"/><rect class="cls-1" x="539.04" y="75.09" width="7.51" height="7.51"/><rect class="cls-1" x="548.43" y="75.09" width="7.51" height="7.51"/><rect class="cls-1" x="529.66" y="28.16" width="7.51" height="7.51"/><rect class="cls-1" x="557.82" y="28.16" width="7.51" height="7.51"/><rect class="cls-1" x="576.59" y="37.55" width="7.51" height="7.51"/><rect class="cls-1" x="576.59" y="46.93" width="7.51" height="7.51"/><rect class="cls-1" x="557.82" y="46.93" width="7.51" height="7.51"/><rect class="cls-1" x="529.66" y="37.55" width="7.51" height="7.51"/><rect class="cls-1" x="548.43" y="37.55" width="7.51" height="7.51"/><rect class="cls-1" x="548.43" y="56.32" width="7.51" height="7.51"/><rect class="cls-1" x="539.04" y="56.32" width="7.51" height="7.51"/><rect class="cls-1" x="567.2" y="56.32" width="7.51" height="7.51"/><rect class="cls-1" x="567.2" y="65.7" width="7.51" height="7.51"/></g></g></svg>