<svg xmlns="http://www.w3.org/2000/svg" viewBox="0 0 66.35 66.36"><path d="M33.05,9.15A8.93,8.93,0,0,0,31.75,8l-.8-.6L30,6.85a13.48,13.48,0,0,0-2.13-1,15.58,15.58,0,0,0-2.44-.64A17.09,17.09,0,0,0,22.84,5a16.38,16.38,0,0,0-5,.88,14.36,14.36,0,0,0-2.13,1c-.32.18-.64.36-.93.54L13.93,8a8.93,8.93,0,0,0-1.31,1.16,5.6,5.6,0,0,0-.87,1c-.44.58-.67.93-.67.93s.37-.2,1-.57A11.27,11.27,0,0,1,13.2,9.9c.44-.22.91-.47,1.46-.69l.84-.36.92-.32c.62-.26,1.32-.36,2-.58a21.36,21.36,0,0,1,2.17-.34,21.07,21.07,0,0,1,2.25-.15,20.73,20.73,0,0,1,2.25.15c.75.06,1.47.22,2.18.34s1.38.33,2,.58A16.18,16.18,0,0,1,31,9.21c.55.22,1,.48,1.47.7s.82.42,1.12.61c.62.37,1,.57,1,.57s-.23-.34-.68-.93A5.85,5.85,0,0,0,33.05,9.15Z"/><path d="M46.87,41.71a2.1,2.1,0,0,0-2.16-.49l-4.06-4a23,23,0,1,0-3.5,3.49l4.06,4.06a2.1,2.1,0,0,0,.49,2.16L55.79,61,61,55.8ZM8.43,37.27a20.4,20.4,0,1,1,14.41,6A20.41,20.41,0,0,1,8.43,37.27Z"/><rect x="56.71" y="58.97" width="7.3" height="2.8" transform="translate(-25.01 60.34) rotate(-44.99)"/><path d="M65.74,60.59l-.81-.82-5.17,5.17.82.81a2.08,2.08,0,0,0,3,0l2.21-2.21A2.09,2.09,0,0,0,65.74,60.59Z"/></svg>
