<svg xmlns="http://www.w3.org/2000/svg" viewBox="0 0 68.48 68.81"><path class="cls-1" d="M43.32,37.85h0v4.43c16.62,9.6,25.16,4.88,25.16,26.53H0C0,46.24,8.39,51.88,25.16,42.28V38.46c-3-2.13-3.65-5.79-4.57-9.76h-.15c-.46,0-.77-.76-.77-1.53v-.3c-.3-.61-.46-1.22-.76-2-.3-1.22-1.37-3.66-.46-4.73a.88.88,0,0,1,1.38,0c-1.22-6.41-2.75-14.8,6.1-17.24,0-5.49,20.59-3,23.18,5.65C50.18,12.07,48.8,20,48.8,20a.67.67,0,0,1,1.08-.31c1.22.76,0,4.12-.31,5.19A15.07,15.07,0,0,1,48.66,27v.15c0,.77-.31,1.53-.77,1.53C47,32.21,46.06,36,43.32,37.85Z"/></svg>
